<?xml version="1.0" encoding="utf-8"?>
<!-- Generator: Adobe Illustrator 15.0.0, SVG Export Plug-In . SVG Version: 6.00 Build 0)  -->
<!DOCTYPE svg PUBLIC "-//W3C//DTD SVG 1.1//EN" "http://www.w3.org/Graphics/SVG/1.1/DTD/svg11.dtd">
<svg version="1.1" id="Layer_1" xmlns="http://www.w3.org/2000/svg" xmlns:xlink="http://www.w3.org/1999/xlink" x="0px" y="0px"
	 width="155px" height="161px" viewBox="0 0 155 161" enable-background="new 0 0 155 161" xml:space="preserve">
<g>
	<rect x="65.052" y="28.674" fill="#231F20" width="1.467" height="0"/>
	<g>
		<path fill="#26A9E0" d="M73.34,26.919L72.154,27.5c0,0,0.281,0.188,0.774,0.527l1.162-0.674L73.34,26.919z"/>
		<g>
			<path fill="none" d="M62.327,52.781l-2.779-1.637v0.019C59.886,51.36,60.91,51.957,62.327,52.781z"/>
			<g>
				<g>
					<path fill="#262261" d="M82.486,48.336l-8.396-4.695l0,0V27.353l-1.162,0.674L59.547,35.78l0,0v0.089v15.275v0.019
						c0.339,0.197,1.363,0.793,2.779,1.618c1.39,0.804,3.157,1.828,5.031,2.909c1.182,0.682,2.402,1.387,3.603,2.071
						c3.792,2.172,7.326,4.165,8.431,4.689c3.793,1.802,9.924,0.958,9.797-5.697C89.123,53.4,86.543,50.525,82.486,48.336z"/>
					<linearGradient id="SVGID_1_" gradientUnits="userSpaceOnUse" x1="45.0034" y1="43.5068" x2="110.4697" y2="43.5068">
						<stop  offset="0" style="stop-color:#00A69C"/>
						<stop  offset="0.1571" style="stop-color:#01A19A"/>
						<stop  offset="0.3353" style="stop-color:#059494"/>
						<stop  offset="0.5239" style="stop-color:#0C7D8A"/>
						<stop  offset="0.7197" style="stop-color:#155D7B"/>
						<stop  offset="0.9191" style="stop-color:#213569"/>
						<stop  offset="1" style="stop-color:#262261"/>
					</linearGradient>
					<path fill="url(#SVGID_1_)" d="M94.54,26.233c-8.396-5.405-8.492-5.547-8.492-5.547l-14.543-8.431l-11.954,6.668h-0.004
						l-14.544,8.43l14.544,8.427l0,0l13.381-7.753l1.162-0.674l0,0l0.201,0.082l13.562,7.953c0,0,18.443,10.386,16.543,25.523
						c-0.859,6.849-3.442,11.249-6.899,13.848c7.303-4.17,12.369-12.231,12.889-20.523C111.333,39.141,104.104,32.393,94.54,26.233z
						"/>
				</g>
				<path fill="#262261" d="M59.547,66.224v42.592l14.543-8.669V74.481c-0.385-0.196-0.77-0.396-1.14-0.608
					C68.605,71.437,61.002,67.06,59.547,66.224z"/>
			</g>
		</g>
	</g>
</g>
<g>
	<g>
		<path fill="#262261" d="M9.065,124.382h3.87c2.095,0,3.606,0.193,4.531,0.579c0.926,0.387,1.655,1.014,2.191,1.877
			c0.535,0.865,0.8,1.901,0.8,3.11c0,1.337-0.349,2.448-1.048,3.336c-0.701,0.888-1.649,1.504-2.849,1.852
			c-0.703,0.199-1.985,0.3-3.844,0.3v8.12h-3.65V124.382z M12.715,131.876h1.158c0.915,0,1.547-0.064,1.905-0.196
			c0.356-0.131,0.636-0.346,0.84-0.647c0.206-0.301,0.307-0.665,0.307-1.092c0-0.74-0.287-1.282-0.859-1.622
			c-0.417-0.252-1.194-0.378-2.321-0.378h-1.03V131.876z"/>
		<path fill="#262261" d="M22.063,129.373h3.638l3.684,8.901l4.065-8.901h3.648l-8.884,19.372H24.54l2.916-6.246L22.063,129.373z"/>
		<path fill="#262261" d="M39.554,124.146h3.558v5.227h2.113v3.063h-2.113v11.119h-3.558v-11.119h-1.825v-3.063h1.825V124.146z"/>
		<path fill="#262261" d="M47.141,123.899h3.534v6.908c0.695-0.6,1.396-1.049,2.098-1.35c0.704-0.299,1.417-0.448,2.14-0.448
			c1.406,0,2.592,0.486,3.558,1.461c0.826,0.84,1.239,2.081,1.239,3.713v9.372h-3.506v-6.217c0-1.644-0.079-2.754-0.235-3.339
			c-0.156-0.58-0.424-1.015-0.801-1.302c-0.378-0.287-0.846-0.43-1.402-0.43c-0.721,0-1.34,0.239-1.857,0.717
			s-0.875,1.131-1.077,1.955c-0.104,0.426-0.155,1.4-0.155,2.92v5.695h-3.534V123.899z"/>
		<path fill="#262261" d="M69.81,129.01c1.339,0,2.597,0.334,3.774,1.003c1.178,0.67,2.098,1.577,2.758,2.724
			c0.66,1.147,0.99,2.387,0.99,3.716c0,1.338-0.332,2.59-0.998,3.753c-0.665,1.166-1.57,2.076-2.717,2.732
			c-1.146,0.656-2.412,0.984-3.792,0.984c-2.034,0-3.771-0.724-5.208-2.17c-1.438-1.449-2.157-3.206-2.157-5.273
			c0-2.216,0.812-4.062,2.438-5.542C66.323,129.651,67.959,129.01,69.81,129.01z M69.871,132.36c-1.108,0-2.027,0.384-2.764,1.153
			c-0.734,0.769-1.103,1.753-1.103,2.95c0,1.234,0.365,2.236,1.091,2.999c0.726,0.766,1.647,1.148,2.761,1.148
			c1.114,0,2.043-0.387,2.782-1.162c0.74-0.771,1.111-1.768,1.111-2.985c0-1.215-0.364-2.203-1.09-2.963
			C71.93,132.74,71.002,132.36,69.871,132.36z"/>
		<path fill="#262261" d="M80.24,129.373h3.558v1.453c0.807-0.679,1.54-1.151,2.192-1.419c0.656-0.265,1.327-0.397,2.013-0.397
			c1.406,0,2.6,0.49,3.58,1.473c0.824,0.833,1.236,2.069,1.236,3.701v9.372h-3.521v-6.21c0-1.693-0.075-2.817-0.227-3.372
			c-0.153-0.557-0.416-0.979-0.793-1.27s-0.844-0.436-1.398-0.436c-0.72,0-1.338,0.24-1.854,0.722
			c-0.516,0.48-0.871,1.148-1.073,1.998c-0.103,0.442-0.155,1.403-0.155,2.878v5.689H80.24V129.373z"/>
		<path fill="#262261" d="M95.868,129.373h3.559v14.183h-3.559V129.373z"/>
		<path fill="#262261" d="M116.544,132.242l-2.961,1.628c-0.558-0.582-1.108-0.985-1.651-1.211
			c-0.546-0.227-1.181-0.339-1.913-0.339c-1.331,0-2.409,0.396-3.23,1.19s-1.233,1.811-1.233,3.051c0,1.208,0.396,2.193,1.188,2.956
			c0.792,0.764,1.832,1.145,3.119,1.145c1.593,0,2.832-0.542,3.721-1.628l2.806,1.92c-1.521,1.979-3.669,2.968-6.44,2.968
			c-2.495,0-4.447-0.739-5.859-2.217c-1.412-1.477-2.118-3.207-2.118-5.188c0-1.373,0.342-2.636,1.029-3.793
			c0.686-1.155,1.646-2.063,2.876-2.723c1.229-0.662,2.604-0.991,4.125-0.991c1.408,0,2.671,0.28,3.792,0.839
			C114.916,130.409,115.831,131.207,116.544,132.242z"/>
		<path fill="#00A69C" d="M121.693,139.843c0.565,0,1.047,0.197,1.448,0.592c0.397,0.396,0.598,0.876,0.598,1.442
			c0,0.563-0.2,1.045-0.598,1.444c-0.401,0.4-0.883,0.601-1.448,0.601c-0.564,0-1.047-0.2-1.448-0.601
			c-0.399-0.399-0.598-0.881-0.598-1.444c0-0.566,0.198-1.046,0.598-1.442C120.646,140.04,121.129,139.843,121.693,139.843z"/>
		<path fill="#262261" d="M127.221,129.373h3.559v1.453c0.807-0.679,1.539-1.151,2.192-1.419c0.655-0.265,1.325-0.397,2.012-0.397
			c1.407,0,2.6,0.49,3.581,1.473c0.823,0.833,1.236,2.069,1.236,3.701v9.372h-3.521v-6.21c0-1.693-0.074-2.817-0.228-3.372
			c-0.151-0.557-0.415-0.979-0.792-1.27c-0.376-0.29-0.843-0.436-1.399-0.436c-0.719,0-1.336,0.24-1.852,0.722
			c-0.517,0.48-0.873,1.148-1.074,1.998c-0.104,0.442-0.155,1.403-0.155,2.878v5.689h-3.559V129.373z"/>
		<path fill="#262261" d="M142.85,123.899h3.559v19.656h-3.559V123.899z"/>
	</g>
	<path fill="#00A69C" d="M97.649,123.534c0.624,0,1.157,0.226,1.605,0.677c0.445,0.453,0.669,0.999,0.669,1.643
		c0,0.634-0.222,1.176-0.663,1.622c-0.441,0.449-0.971,0.674-1.586,0.674c-0.632,0-1.171-0.229-1.618-0.686
		c-0.446-0.456-0.67-1.009-0.67-1.662c0-0.625,0.222-1.16,0.663-1.604C96.491,123.756,97.026,123.534,97.649,123.534z"/>
</g>
</svg>
